<?xml version="1.0" encoding="utf-8" standalone="no"?>
<!DOCTYPE svg PUBLIC "-//W3C//DTD SVG 1.1//EN"
  "http://www.w3.org/Graphics/SVG/1.1/DTD/svg11.dtd">
<!-- Created with matplotlib (http://matplotlib.org/) -->
<svg height="659pt" version="1.1" viewBox="0 0 877 659" width="877pt" xmlns="http://www.w3.org/2000/svg" xmlns:xlink="http://www.w3.org/1999/xlink">
 <defs>
  <style type="text/css">
*{stroke-linecap:butt;stroke-linejoin:round;}
  </style>
 </defs>
 <g id="figure_1">
  <g id="patch_1">
   <path d="
M0 659.7
L877.5 659.7
L877.5 0
L0 0
z
" style="fill:#ffffff;"/>
  </g>
  <g id="axes_1">
   <g id="patch_2">
    <path d="
M109.688 593.73
L789.75 593.73
L789.75 65.97
L109.688 65.97
z
" style="fill:#ffffff;"/>
   </g>
   <g id="line2d_1">
    <path clip-path="url(#p85c8ce33d4)" d="
M109.688 329.85
L316.699 329.758
L321.595 329.38
L322.955 329.535
L324.315 329.908
L325.947 330.615
L328.396 331.714
L329.484 331.901
L330.3 331.794
L331.116 331.419
L331.932 330.746
L332.748 329.775
L333.836 328.088
L336.556 323.546
L337.1 322.981
L337.644 322.668
L338.188 322.662
L338.733 323.012
L339.277 323.754
L339.821 324.912
L340.637 327.431
L341.453 330.813
L342.813 337.778
L344.445 346.157
L345.261 349.186
L345.805 350.406
L346.077 350.72
L346.349 350.814
L346.621 350.673
L346.893 350.284
L347.437 348.723
L347.981 346.076
L348.525 342.337
L349.342 334.794
L350.43 321.829
L352.878 290.382
L353.694 283.29
L354.238 280.551
L354.51 279.896
L354.782 279.761
L355.054 280.174
L355.326 281.156
L355.87 284.889
L356.414 291.019
L356.958 299.494
L357.774 316.201
L358.862 344.118
L361.039 402.608
L361.855 418.38
L362.399 425.173
L362.671 427.237
L362.943 428.334
L363.215 428.415
L363.487 427.443
L363.759 425.389
L364.303 417.981
L364.847 406.209
L365.663 380.906
L366.479 347.934
L368.383 257.074
L369.471 210.409
L370.287 184.964
L370.832 174.425
L371.104 171.381
L371.376 169.92
L371.648 170.098
L371.92 171.951
L372.192 175.501
L372.736 187.679
L373.28 206.413
L374.096 245.581
L375.184 313.47
L377.632 476.816
L378.448 515.531
L378.992 532.856
L379.536 542.254
L379.808 543.777
L380.08 543.116
L380.352 540.253
L380.624 535.194
L381.168 518.624
L381.713 493.932
L382.529 443.713
L383.617 359.355
L385.793 184.513
L386.609 136.01
L387.153 113.095
L387.697 98.9317
L387.969 95.3418
L388.241 94.1408
L388.513 95.3418
L388.785 98.9317
L389.329 113.095
L389.873 136.01
L390.689 184.513
L391.777 267.855
L393.954 443.713
L394.77 493.932
L395.314 518.624
L395.858 535.194
L396.13 540.253
L396.402 543.116
L396.674 543.777
L396.946 542.254
L397.218 538.592
L397.762 525.132
L398.306 504.179
L399.122 461.14
L400.21 389.541
L402.114 261.162
L402.93 218.087
L403.747 187.679
L404.291 175.501
L404.563 171.951
L404.835 170.098
L405.107 169.92
L405.379 171.381
L405.651 174.425
L406.195 184.964
L406.739 200.794
L407.555 232.384
L408.915 296.611
L410.275 359.636
L411.091 390.293
L411.907 412.632
L412.451 422.236
L412.995 427.443
L413.267 428.415
L413.539 428.334
L413.811 427.237
L414.083 425.173
L414.628 418.38
L415.172 408.504
L415.988 389.333
L419.252 304.563
L420.068 291.019
L420.612 284.889
L421.156 281.156
L421.428 280.174
L421.7 279.761
L421.972 279.896
L422.244 280.551
L422.788 283.29
L423.332 287.677
L424.148 296.589
L426.053 321.829
L427.141 334.794
L427.957 342.337
L428.773 347.537
L429.317 349.637
L429.861 350.673
L430.133 350.814
L430.405 350.72
L430.677 350.406
L431.221 349.186
L431.765 347.3
L432.581 343.574
L435.573 328.469
L436.39 325.649
L437.206 323.754
L437.75 323.012
L438.294 322.662
L438.838 322.668
L439.382 322.981
L439.926 323.546
L440.742 324.733
L444.278 330.455
L445.094 331.229
L445.91 331.701
L446.726 331.893
L447.543 331.847
L448.631 331.519
L450.535 330.615
L452.439 329.816
L453.799 329.487
L455.159 329.372
L457.063 329.464
L462.776 329.933
L466.856 329.895
L474.473 329.84
L510.38 329.85
L666.523 329.85
L666.523 329.85" style="fill:none;stroke:#0000ff;stroke-linecap:square;stroke-width:2;"/>
   </g>
   <g id="line2d_2">
    <path clip-path="url(#p85c8ce33d4)" d="
M109.688 329.85
L313.706 329.751
L317.787 329.65
L319.691 329.822
L321.867 330.259
L324.587 330.824
L325.675 330.856
L326.763 330.666
L327.852 330.204
L328.94 329.463
L330.3 328.241
L332.204 326.521
L333.02 326.052
L333.564 325.914
L334.108 325.952
L334.652 326.195
L335.196 326.665
L335.74 327.375
L336.556 328.894
L337.372 330.914
L338.733 335.043
L340.365 339.95
L341.181 341.666
L341.725 342.309
L341.997 342.444
L342.269 342.441
L342.541 342.29
L343.085 341.513
L343.629 340.064
L344.173 337.921
L344.989 333.44
L345.805 327.622
L347.437 313.695
L348.525 304.826
L349.342 299.754
L349.886 297.591
L350.158 296.96
L350.43 296.665
L350.702 296.726
L350.974 297.164
L351.246 297.995
L351.79 300.876
L352.334 305.414
L353.15 315.233
L353.966 328.23
L355.326 354.363
L356.686 380.351
L357.502 392.567
L358.046 398.227
L358.59 401.366
L358.862 401.871
L359.134 401.613
L359.406 400.563
L359.678 398.699
L360.223 392.485
L360.767 382.973
L361.583 362.912
L362.671 327.436
L365.391 230.378
L366.207 211.23
L366.751 203.704
L367.023 201.759
L367.295 201.11
L367.567 201.804
L367.839 203.874
L368.383 212.202
L368.927 226.059
L369.471 245.153
L370.287 282.348
L371.648 359.446
L373.28 452.742
L374.096 488.751
L374.64 505.88
L375.184 516.336
L375.456 518.826
L375.728 519.403
L376 518.025
L376.272 514.671
L376.816 502.065
L377.36 481.86
L378.176 438.759
L379.264 363.196
L381.713 179.549
L382.529 135.162
L383.073 114.707
L383.617 102.764
L383.889 100.196
L384.161 99.9624
L384.433 102.079
L384.705 106.537
L385.249 122.311
L385.793 146.702
L386.609 197.237
L387.697 283.041
L389.873 462.463
L390.689 512.998
L391.233 537.389
L391.777 553.163
L392.049 557.621
L392.321 559.738
L392.594 559.504
L392.866 556.936
L393.138 552.077
L393.682 535.776
L394.226 511.416
L395.042 462.369
L396.402 360.25
L398.034 238.223
L398.85 190.611
L399.394 166.818
L399.938 150.356
L400.482 141.675
L400.754 140.297
L401.026 140.874
L401.298 143.364
L401.842 153.82
L402.386 170.949
L403.202 206.958
L404.291 267.63
L406.195 377.352
L407.011 414.547
L407.827 441.248
L408.371 452.361
L408.915 457.896
L409.187 458.59
L409.459 457.941
L409.731 455.996
L410.275 448.47
L410.819 436.628
L411.635 412.473
L412.995 362.71
L414.628 304.85
L415.444 282.677
L416.26 267.215
L416.804 261.001
L417.076 259.137
L417.348 258.087
L417.62 257.829
L417.892 258.334
L418.164 259.563
L418.708 264.015
L419.252 270.77
L420.068 284.161
L423.604 348.124
L424.42 356.762
L424.964 360.471
L425.509 362.536
L425.781 362.974
L426.053 363.035
L426.325 362.74
L426.597 362.109
L427.141 359.946
L427.685 356.768
L428.501 350.636
L431.493 326.26
L432.309 321.779
L432.853 319.636
L433.397 318.187
L433.941 317.41
L434.213 317.259
L434.485 317.256
L434.757 317.391
L435.301 318.034
L435.845 319.094
L436.662 321.25
L439.926 330.806
L440.742 332.325
L441.558 333.299
L442.102 333.654
L442.646 333.791
L443.19 333.737
L444.006 333.365
L445.094 332.501
L448.087 329.834
L449.175 329.23
L450.263 328.908
L451.351 328.837
L452.711 329.001
L458.424 330.038
L460.872 330.039
L469.305 329.817
L489.706 329.85
L666.523 329.85
L666.523 329.85" style="fill:none;stroke:#008000;stroke-linecap:square;stroke-width:2;"/>
   </g>
   <g id="line2d_3">
    <path clip-path="url(#p85c8ce33d4)" d="
M109.688 329.85
L312.89 329.74
L318.875 329.497
L322.683 329.142
L325.675 328.662
L328.124 328.067
L330.3 327.326
L332.204 326.466
L334.108 325.357
L335.74 324.166
L337.372 322.71
L339.005 320.946
L340.637 318.826
L342.269 316.298
L343.901 313.311
L345.533 309.811
L347.165 305.743
L348.797 301.058
L350.43 295.709
L352.062 289.657
L353.966 281.667
L355.87 272.653
L357.774 262.615
L359.951 249.932
L362.399 234.257
L365.391 213.454
L370.287 177.375
L374.096 149.986
L376.544 133.931
L378.448 122.792
L380.08 114.428
L381.44 108.422
L382.801 103.383
L383.889 100.098
L384.977 97.5107
L385.793 96.0423
L386.609 94.9878
L387.425 94.3529
L387.969 94.1644
L388.513 94.1644
L389.057 94.3529
L389.601 94.7294
L390.417 95.6445
L391.233 96.9757
L392.049 98.7157
L393.138 101.655
L394.226 105.277
L395.586 110.713
L396.946 117.083
L398.578 125.834
L400.482 137.349
L402.93 153.759
L406.195 177.375
L412.723 224.993
L415.444 243.137
L417.892 258.006
L420.068 269.889
L421.972 279.197
L423.876 287.478
L425.781 294.75
L427.685 301.058
L429.317 305.743
L430.949 309.811
L432.581 313.311
L434.213 316.298
L435.845 318.826
L437.478 320.946
L439.11 322.71
L440.742 324.166
L442.374 325.357
L444.278 326.466
L446.182 327.326
L448.359 328.067
L450.807 328.662
L453.799 329.142
L457.335 329.478
L462.232 329.706
L470.393 329.824
L494.875 329.85
L666.523 329.85
L666.523 329.85" style="fill:none;stroke:#ff0000;stroke-linecap:square;stroke-width:2;"/>
   </g>
   <g id="matplotlib.axis_1">
    <g id="xtick_1">
     <g id="line2d_4">
      <path clip-path="url(#p85c8ce33d4)" d="
M109.688 593.73
L109.688 65.97" style="fill:none;stroke:#000000;stroke-dasharray:1.000000,3.000000;stroke-dashoffset:0.0;stroke-width:0.5;"/>
     </g>
     <g id="line2d_5">
      <defs>
       <path d="
M0 0
L0 -4" id="mc7db9fdffb" style="stroke:#000000;stroke-width:0.5;"/>
      </defs>
      <g>
       <use style="stroke:#000000;stroke-width:0.5;" x="109.6875" xlink:href="#mc7db9fdffb" y="593.73"/>
      </g>
     </g>
     <g id="line2d_6">
      <defs>
       <path d="
M0 0
L0 4" id="m5a7d422ac3" style="stroke:#000000;stroke-width:0.5;"/>
      </defs>
      <g>
       <use style="stroke:#000000;stroke-width:0.5;" x="109.6875" xlink:href="#m5a7d422ac3" y="65.97"/>
      </g>
     </g>
     <g id="text_1">
      <!-- 0 -->
      <defs>
       <path d="
M31.7812 66.4062
Q24.1719 66.4062 20.3281 58.9062
Q16.5 51.4219 16.5 36.375
Q16.5 21.3906 20.3281 13.8906
Q24.1719 6.39062 31.7812 6.39062
Q39.4531 6.39062 43.2812 13.8906
Q47.125 21.3906 47.125 36.375
Q47.125 51.4219 43.2812 58.9062
Q39.4531 66.4062 31.7812 66.4062
M31.7812 74.2188
Q44.0469 74.2188 50.5156 64.5156
Q56.9844 54.8281 56.9844 36.375
Q56.9844 17.9688 50.5156 8.26562
Q44.0469 -1.42188 31.7812 -1.42188
Q19.5312 -1.42188 13.0625 8.26562
Q6.59375 17.9688 6.59375 36.375
Q6.59375 54.8281 13.0625 64.5156
Q19.5312 74.2188 31.7812 74.2188" id="BitstreamVeraSans-Roman-30"/>
      </defs>
      <g transform="translate(106.6640625 606.848125)scale(0.12 -0.12)">
       <use xlink:href="#BitstreamVeraSans-Roman-30"/>
      </g>
     </g>
    </g>
    <g id="xtick_2">
     <g id="line2d_7">
      <path clip-path="url(#p85c8ce33d4)" d="
M245.7 593.73
L245.7 65.97" style="fill:none;stroke:#000000;stroke-dasharray:1.000000,3.000000;stroke-dashoffset:0.0;stroke-width:0.5;"/>
     </g>
     <g id="line2d_8">
      <g>
       <use style="stroke:#000000;stroke-width:0.5;" x="245.7" xlink:href="#mc7db9fdffb" y="593.73"/>
      </g>
     </g>
     <g id="line2d_9">
      <g>
       <use style="stroke:#000000;stroke-width:0.5;" x="245.7" xlink:href="#m5a7d422ac3" y="65.97"/>
      </g>
     </g>
     <g id="text_2">
      <!-- 500 -->
      <defs>
       <path d="
M10.7969 72.9062
L49.5156 72.9062
L49.5156 64.5938
L19.8281 64.5938
L19.8281 46.7344
Q21.9688 47.4688 24.1094 47.8281
Q26.2656 48.1875 28.4219 48.1875
Q40.625 48.1875 47.75 41.5
Q54.8906 34.8125 54.8906 23.3906
Q54.8906 11.625 47.5625 5.09375
Q40.2344 -1.42188 26.9062 -1.42188
Q22.3125 -1.42188 17.5469 -0.640625
Q12.7969 0.140625 7.71875 1.70312
L7.71875 11.625
Q12.1094 9.23438 16.7969 8.0625
Q21.4844 6.89062 26.7031 6.89062
Q35.1562 6.89062 40.0781 11.3281
Q45.0156 15.7656 45.0156 23.3906
Q45.0156 31 40.0781 35.4375
Q35.1562 39.8906 26.7031 39.8906
Q22.75 39.8906 18.8125 39.0156
Q14.8906 38.1406 10.7969 36.2812
z
" id="BitstreamVeraSans-Roman-35"/>
      </defs>
      <g transform="translate(235.1090625 606.848125)scale(0.12 -0.12)">
       <use xlink:href="#BitstreamVeraSans-Roman-35"/>
       <use x="63.623046875" xlink:href="#BitstreamVeraSans-Roman-30"/>
       <use x="127.24609375" xlink:href="#BitstreamVeraSans-Roman-30"/>
      </g>
     </g>
    </g>
    <g id="xtick_3">
     <g id="line2d_10">
      <path clip-path="url(#p85c8ce33d4)" d="
M381.713 593.73
L381.713 65.97" style="fill:none;stroke:#000000;stroke-dasharray:1.000000,3.000000;stroke-dashoffset:0.0;stroke-width:0.5;"/>
     </g>
     <g id="line2d_11">
      <g>
       <use style="stroke:#000000;stroke-width:0.5;" x="381.7125" xlink:href="#mc7db9fdffb" y="593.73"/>
      </g>
     </g>
     <g id="line2d_12">
      <g>
       <use style="stroke:#000000;stroke-width:0.5;" x="381.7125" xlink:href="#m5a7d422ac3" y="65.97"/>
      </g>
     </g>
     <g id="text_3">
      <!-- 1000 -->
      <defs>
       <path d="
M12.4062 8.29688
L28.5156 8.29688
L28.5156 63.9219
L10.9844 60.4062
L10.9844 69.3906
L28.4219 72.9062
L38.2812 72.9062
L38.2812 8.29688
L54.3906 8.29688
L54.3906 0
L12.4062 0
z
" id="BitstreamVeraSans-Roman-31"/>
      </defs>
      <g transform="translate(367.5 606.848125)scale(0.12 -0.12)">
       <use xlink:href="#BitstreamVeraSans-Roman-31"/>
       <use x="63.623046875" xlink:href="#BitstreamVeraSans-Roman-30"/>
       <use x="127.24609375" xlink:href="#BitstreamVeraSans-Roman-30"/>
       <use x="190.869140625" xlink:href="#BitstreamVeraSans-Roman-30"/>
      </g>
     </g>
    </g>
    <g id="xtick_4">
     <g id="line2d_13">
      <path clip-path="url(#p85c8ce33d4)" d="
M517.725 593.73
L517.725 65.97" style="fill:none;stroke:#000000;stroke-dasharray:1.000000,3.000000;stroke-dashoffset:0.0;stroke-width:0.5;"/>
     </g>
     <g id="line2d_14">
      <g>
       <use style="stroke:#000000;stroke-width:0.5;" x="517.725" xlink:href="#mc7db9fdffb" y="593.73"/>
      </g>
     </g>
     <g id="line2d_15">
      <g>
       <use style="stroke:#000000;stroke-width:0.5;" x="517.725" xlink:href="#m5a7d422ac3" y="65.97"/>
      </g>
     </g>
     <g id="text_4">
      <!-- 1500 -->
      <g transform="translate(503.5125 606.848125)scale(0.12 -0.12)">
       <use xlink:href="#BitstreamVeraSans-Roman-31"/>
       <use x="63.623046875" xlink:href="#BitstreamVeraSans-Roman-35"/>
       <use x="127.24609375" xlink:href="#BitstreamVeraSans-Roman-30"/>
       <use x="190.869140625" xlink:href="#BitstreamVeraSans-Roman-30"/>
      </g>
     </g>
    </g>
    <g id="xtick_5">
     <g id="line2d_16">
      <path clip-path="url(#p85c8ce33d4)" d="
M653.738 593.73
L653.738 65.97" style="fill:none;stroke:#000000;stroke-dasharray:1.000000,3.000000;stroke-dashoffset:0.0;stroke-width:0.5;"/>
     </g>
     <g id="line2d_17">
      <g>
       <use style="stroke:#000000;stroke-width:0.5;" x="653.7375" xlink:href="#mc7db9fdffb" y="593.73"/>
      </g>
     </g>
     <g id="line2d_18">
      <g>
       <use style="stroke:#000000;stroke-width:0.5;" x="653.7375" xlink:href="#m5a7d422ac3" y="65.97"/>
      </g>
     </g>
     <g id="text_5">
      <!-- 2000 -->
      <defs>
       <path d="
M19.1875 8.29688
L53.6094 8.29688
L53.6094 0
L7.32812 0
L7.32812 8.29688
Q12.9375 14.1094 22.625 23.8906
Q32.3281 33.6875 34.8125 36.5312
Q39.5469 41.8438 41.4219 45.5312
Q43.3125 49.2188 43.3125 52.7812
Q43.3125 58.5938 39.2344 62.25
Q35.1562 65.9219 28.6094 65.9219
Q23.9688 65.9219 18.8125 64.3125
Q13.6719 62.7031 7.8125 59.4219
L7.8125 69.3906
Q13.7656 71.7812 18.9375 73
Q24.125 74.2188 28.4219 74.2188
Q39.75 74.2188 46.4844 68.5469
Q53.2188 62.8906 53.2188 53.4219
Q53.2188 48.9219 51.5312 44.8906
Q49.8594 40.875 45.4062 35.4062
Q44.1875 33.9844 37.6406 27.2188
Q31.1094 20.4531 19.1875 8.29688" id="BitstreamVeraSans-Roman-32"/>
      </defs>
      <g transform="translate(639.305625 606.848125)scale(0.12 -0.12)">
       <use xlink:href="#BitstreamVeraSans-Roman-32"/>
       <use x="63.623046875" xlink:href="#BitstreamVeraSans-Roman-30"/>
       <use x="127.24609375" xlink:href="#BitstreamVeraSans-Roman-30"/>
       <use x="190.869140625" xlink:href="#BitstreamVeraSans-Roman-30"/>
      </g>
     </g>
    </g>
    <g id="xtick_6">
     <g id="line2d_19">
      <path clip-path="url(#p85c8ce33d4)" d="
M789.75 593.73
L789.75 65.97" style="fill:none;stroke:#000000;stroke-dasharray:1.000000,3.000000;stroke-dashoffset:0.0;stroke-width:0.5;"/>
     </g>
     <g id="line2d_20">
      <g>
       <use style="stroke:#000000;stroke-width:0.5;" x="789.75" xlink:href="#mc7db9fdffb" y="593.73"/>
      </g>
     </g>
     <g id="line2d_21">
      <g>
       <use style="stroke:#000000;stroke-width:0.5;" x="789.75" xlink:href="#m5a7d422ac3" y="65.97"/>
      </g>
     </g>
     <g id="text_6">
      <!-- 2500 -->
      <g transform="translate(775.318125 606.848125)scale(0.12 -0.12)">
       <use xlink:href="#BitstreamVeraSans-Roman-32"/>
       <use x="63.623046875" xlink:href="#BitstreamVeraSans-Roman-35"/>
       <use x="127.24609375" xlink:href="#BitstreamVeraSans-Roman-30"/>
       <use x="190.869140625" xlink:href="#BitstreamVeraSans-Roman-30"/>
      </g>
     </g>
    </g>
    <g id="text_7">
     <!-- $x$ -->
     <defs>
      <path d="
M7.8125 2.875
Q9.57812 1.51562 12.7969 1.51562
Q15.9219 1.51562 18.3125 4.51562
Q20.7031 7.51562 21.5781 11.0781
L26.125 28.8125
Q27.2031 33.6406 27.2031 35.4062
Q27.2031 37.8906 25.8125 39.75
Q24.4219 41.6094 21.9219 41.6094
Q18.75 41.6094 15.9688 39.625
Q13.1875 37.6406 11.2812 34.5938
Q9.375 31.5469 8.59375 28.4219
Q8.40625 27.7812 7.8125 27.7812
L6.59375 27.7812
Q5.8125 27.7812 5.8125 28.7188
L5.8125 29
Q6.78125 32.7188 9.125 36.25
Q11.4688 39.7969 14.8594 41.9844
Q18.2656 44.1875 22.125 44.1875
Q25.7812 44.1875 28.7344 42.2344
Q31.6875 40.2812 32.9062 36.9219
Q34.625 39.9844 37.2812 42.0781
Q39.9375 44.1875 43.1094 44.1875
Q45.2656 44.1875 47.5 43.4219
Q49.75 42.6719 51.1719 41.1094
Q52.5938 39.5469 52.5938 37.2031
Q52.5938 34.6719 50.9531 32.8281
Q49.3125 31 46.7812 31
Q45.1719 31 44.0938 32.0312
Q43.0156 33.0625 43.0156 34.625
Q43.0156 36.7188 44.4531 38.2969
Q45.9062 39.8906 47.9062 40.1875
Q46.0938 41.6094 42.9219 41.6094
Q39.7031 41.6094 37.3281 38.625
Q34.9688 35.6406 33.9844 31.9844
L29.5938 14.3125
Q28.5156 10.2969 28.5156 7.71875
Q28.5156 5.17188 29.9531 3.34375
Q31.3906 1.51562 33.7969 1.51562
Q38.4844 1.51562 42.1562 5.64062
Q45.8438 9.76562 47.0156 14.7031
Q47.2188 15.2812 47.7969 15.2812
L49.0312 15.2812
Q49.4219 15.2812 49.6562 15.0156
Q49.9062 14.75 49.9062 14.4062
Q49.9062 14.3125 49.8125 14.1094
Q48.3906 8.15625 43.8438 3.51562
Q39.3125 -1.125 33.5938 -1.125
Q29.9375 -1.125 26.9844 0.84375
Q24.0312 2.82812 22.7969 6.20312
Q21.2344 3.26562 18.4688 1.0625
Q15.7188 -1.125 12.5938 -1.125
Q10.4531 -1.125 8.17188 -0.359375
Q5.90625 0.390625 4.48438 1.95312
Q3.07812 3.51562 3.07812 5.90625
Q3.07812 8.25 4.70312 10.1719
Q6.34375 12.1094 8.79688 12.1094
Q10.4531 12.1094 11.5781 11.1094
Q12.7031 10.1094 12.7031 8.5
Q12.7031 6.39062 11.2969 4.82812
Q9.90625 3.26562 7.8125 2.875" id="Cmmi10-78"/>
     </defs>
     <g transform="translate(445.07875 626.50125)scale(0.16 -0.16)">
      <use transform="translate(0.0 0.8125)" xlink:href="#Cmmi10-78"/>
     </g>
    </g>
   </g>
   <g id="matplotlib.axis_2">
    <g id="ytick_1">
     <g id="line2d_22">
      <path clip-path="url(#p85c8ce33d4)" d="
M109.688 593.73
L789.75 593.73" style="fill:none;stroke:#000000;stroke-dasharray:1.000000,3.000000;stroke-dashoffset:0.0;stroke-width:0.5;"/>
     </g>
     <g id="line2d_23">
      <defs>
       <path d="
M0 0
L4 0" id="md7965d1ba0" style="stroke:#000000;stroke-width:0.5;"/>
      </defs>
      <g>
       <use style="stroke:#000000;stroke-width:0.5;" x="109.6875" xlink:href="#md7965d1ba0" y="593.73"/>
      </g>
     </g>
     <g id="line2d_24">
      <defs>
       <path d="
M0 0
L-4 0" id="md9a1c1a7cd" style="stroke:#000000;stroke-width:0.5;"/>
      </defs>
      <g>
       <use style="stroke:#000000;stroke-width:0.5;" x="789.75" xlink:href="#md9a1c1a7cd" y="593.73"/>
      </g>
     </g>
     <g id="text_8">
      <!-- −0.10 -->
      <defs>
       <path d="
M10.5938 35.5
L73.1875 35.5
L73.1875 27.2031
L10.5938 27.2031
z
" id="BitstreamVeraSans-Roman-2212"/>
       <path d="
M10.6875 12.4062
L21 12.4062
L21 0
L10.6875 0
z
" id="BitstreamVeraSans-Roman-2e"/>
      </defs>
      <g transform="translate(70.98125 597.04125)scale(0.12 -0.12)">
       <use xlink:href="#BitstreamVeraSans-Roman-2212"/>
       <use x="83.7890625" xlink:href="#BitstreamVeraSans-Roman-30"/>
       <use x="147.412109375" xlink:href="#BitstreamVeraSans-Roman-2e"/>
       <use x="179.19921875" xlink:href="#BitstreamVeraSans-Roman-31"/>
       <use x="242.822265625" xlink:href="#BitstreamVeraSans-Roman-30"/>
      </g>
     </g>
    </g>
    <g id="ytick_2">
     <g id="line2d_25">
      <path clip-path="url(#p85c8ce33d4)" d="
M109.688 461.79
L789.75 461.79" style="fill:none;stroke:#000000;stroke-dasharray:1.000000,3.000000;stroke-dashoffset:0.0;stroke-width:0.5;"/>
     </g>
     <g id="line2d_26">
      <g>
       <use style="stroke:#000000;stroke-width:0.5;" x="109.6875" xlink:href="#md7965d1ba0" y="461.79"/>
      </g>
     </g>
     <g id="line2d_27">
      <g>
       <use style="stroke:#000000;stroke-width:0.5;" x="789.75" xlink:href="#md9a1c1a7cd" y="461.79"/>
      </g>
     </g>
     <g id="text_9">
      <!-- −0.05 -->
      <g transform="translate(71.2325 465.10125)scale(0.12 -0.12)">
       <use xlink:href="#BitstreamVeraSans-Roman-2212"/>
       <use x="83.7890625" xlink:href="#BitstreamVeraSans-Roman-30"/>
       <use x="147.412109375" xlink:href="#BitstreamVeraSans-Roman-2e"/>
       <use x="179.19921875" xlink:href="#BitstreamVeraSans-Roman-30"/>
       <use x="242.822265625" xlink:href="#BitstreamVeraSans-Roman-35"/>
      </g>
     </g>
    </g>
    <g id="ytick_3">
     <g id="line2d_28">
      <path clip-path="url(#p85c8ce33d4)" d="
M109.688 329.85
L789.75 329.85" style="fill:none;stroke:#000000;stroke-dasharray:1.000000,3.000000;stroke-dashoffset:0.0;stroke-width:0.5;"/>
     </g>
     <g id="line2d_29">
      <g>
       <use style="stroke:#000000;stroke-width:0.5;" x="109.6875" xlink:href="#md7965d1ba0" y="329.85"/>
      </g>
     </g>
     <g id="line2d_30">
      <g>
       <use style="stroke:#000000;stroke-width:0.5;" x="789.75" xlink:href="#md9a1c1a7cd" y="329.85"/>
      </g>
     </g>
     <g id="text_10">
      <!-- 0.00 -->
      <g transform="translate(80.556875 333.16125)scale(0.12 -0.12)">
       <use xlink:href="#BitstreamVeraSans-Roman-30"/>
       <use x="63.623046875" xlink:href="#BitstreamVeraSans-Roman-2e"/>
       <use x="95.41015625" xlink:href="#BitstreamVeraSans-Roman-30"/>
       <use x="159.033203125" xlink:href="#BitstreamVeraSans-Roman-30"/>
      </g>
     </g>
    </g>
    <g id="ytick_4">
     <g id="line2d_31">
      <path clip-path="url(#p85c8ce33d4)" d="
M109.688 197.91
L789.75 197.91" style="fill:none;stroke:#000000;stroke-dasharray:1.000000,3.000000;stroke-dashoffset:0.0;stroke-width:0.5;"/>
     </g>
     <g id="line2d_32">
      <g>
       <use style="stroke:#000000;stroke-width:0.5;" x="109.6875" xlink:href="#md7965d1ba0" y="197.91"/>
      </g>
     </g>
     <g id="line2d_33">
      <g>
       <use style="stroke:#000000;stroke-width:0.5;" x="789.75" xlink:href="#md9a1c1a7cd" y="197.91"/>
      </g>
     </g>
     <g id="text_11">
      <!-- 0.05 -->
      <g transform="translate(80.808125 201.22125)scale(0.12 -0.12)">
       <use xlink:href="#BitstreamVeraSans-Roman-30"/>
       <use x="63.623046875" xlink:href="#BitstreamVeraSans-Roman-2e"/>
       <use x="95.41015625" xlink:href="#BitstreamVeraSans-Roman-30"/>
       <use x="159.033203125" xlink:href="#BitstreamVeraSans-Roman-35"/>
      </g>
     </g>
    </g>
    <g id="ytick_5">
     <g id="line2d_34">
      <path clip-path="url(#p85c8ce33d4)" d="
M109.688 65.97
L789.75 65.97" style="fill:none;stroke:#000000;stroke-dasharray:1.000000,3.000000;stroke-dashoffset:0.0;stroke-width:0.5;"/>
     </g>
     <g id="line2d_35">
      <g>
       <use style="stroke:#000000;stroke-width:0.5;" x="109.6875" xlink:href="#md7965d1ba0" y="65.97"/>
      </g>
     </g>
     <g id="line2d_36">
      <g>
       <use style="stroke:#000000;stroke-width:0.5;" x="789.75" xlink:href="#md9a1c1a7cd" y="65.97"/>
      </g>
     </g>
     <g id="text_12">
      <!-- 0.10 -->
      <g transform="translate(80.556875 69.28125)scale(0.12 -0.12)">
       <use xlink:href="#BitstreamVeraSans-Roman-30"/>
       <use x="63.623046875" xlink:href="#BitstreamVeraSans-Roman-2e"/>
       <use x="95.41015625" xlink:href="#BitstreamVeraSans-Roman-31"/>
       <use x="159.033203125" xlink:href="#BitstreamVeraSans-Roman-30"/>
      </g>
     </g>
    </g>
   </g>
   <g id="patch_3">
    <path d="
M109.688 593.73
L109.688 65.97" style="fill:none;stroke:#000000;"/>
   </g>
   <g id="patch_4">
    <path d="
M109.688 65.97
L789.75 65.97" style="fill:none;stroke:#000000;"/>
   </g>
   <g id="patch_5">
    <path d="
M109.688 593.73
L789.75 593.73" style="fill:none;stroke:#000000;"/>
   </g>
   <g id="patch_6">
    <path d="
M789.75 593.73
L789.75 65.97" style="fill:none;stroke:#000000;"/>
   </g>
   <g id="text_13">
    <!-- Gaussian wave packet -->
    <defs>
     <path d="
M44.2812 53.0781
L44.2812 44.5781
Q40.4844 46.5312 36.375 47.5
Q32.2812 48.4844 27.875 48.4844
Q21.1875 48.4844 17.8438 46.4375
Q14.5 44.3906 14.5 40.2812
Q14.5 37.1562 16.8906 35.375
Q19.2812 33.5938 26.5156 31.9844
L29.5938 31.2969
Q39.1562 29.25 43.1875 25.5156
Q47.2188 21.7812 47.2188 15.0938
Q47.2188 7.46875 41.1875 3.01562
Q35.1562 -1.42188 24.6094 -1.42188
Q20.2188 -1.42188 15.4531 -0.5625
Q10.6875 0.296875 5.42188 2
L5.42188 11.2812
Q10.4062 8.6875 15.2344 7.39062
Q20.0625 6.10938 24.8125 6.10938
Q31.1562 6.10938 34.5625 8.28125
Q37.9844 10.4531 37.9844 14.4062
Q37.9844 18.0625 35.5156 20.0156
Q33.0625 21.9688 24.7031 23.7812
L21.5781 24.5156
Q13.2344 26.2656 9.51562 29.9062
Q5.8125 33.5469 5.8125 39.8906
Q5.8125 47.6094 11.2812 51.7969
Q16.75 56 26.8125 56
Q31.7812 56 36.1719 55.2656
Q40.5781 54.5469 44.2812 53.0781" id="BitstreamVeraSans-Roman-73"/>
     <path d="
M9.42188 54.6875
L18.4062 54.6875
L18.4062 0
L9.42188 0
z

M9.42188 75.9844
L18.4062 75.9844
L18.4062 64.5938
L9.42188 64.5938
z
" id="BitstreamVeraSans-Roman-69"/>
     <path d="
M34.2812 27.4844
Q23.3906 27.4844 19.1875 25
Q14.9844 22.5156 14.9844 16.5
Q14.9844 11.7188 18.1406 8.90625
Q21.2969 6.10938 26.7031 6.10938
Q34.1875 6.10938 38.7031 11.4062
Q43.2188 16.7031 43.2188 25.4844
L43.2188 27.4844
z

M52.2031 31.2031
L52.2031 0
L43.2188 0
L43.2188 8.29688
Q40.1406 3.32812 35.5469 0.953125
Q30.9531 -1.42188 24.3125 -1.42188
Q15.9219 -1.42188 10.9531 3.29688
Q6 8.01562 6 15.9219
Q6 25.1406 12.1719 29.8281
Q18.3594 34.5156 30.6094 34.5156
L43.2188 34.5156
L43.2188 35.4062
Q43.2188 41.6094 39.1406 45
Q35.0625 48.3906 27.6875 48.3906
Q23 48.3906 18.5469 47.2656
Q14.1094 46.1406 10.0156 43.8906
L10.0156 52.2031
Q14.9375 54.1094 19.5781 55.0469
Q24.2188 56 28.6094 56
Q40.4844 56 46.3438 49.8438
Q52.2031 43.7031 52.2031 31.2031" id="BitstreamVeraSans-Roman-61"/>
     <path d="
M56.2031 29.5938
L56.2031 25.2031
L14.8906 25.2031
Q15.4844 15.9219 20.4844 11.0625
Q25.4844 6.20312 34.4219 6.20312
Q39.5938 6.20312 44.4531 7.46875
Q49.3125 8.73438 54.1094 11.2812
L54.1094 2.78125
Q49.2656 0.734375 44.1875 -0.34375
Q39.1094 -1.42188 33.8906 -1.42188
Q20.7969 -1.42188 13.1562 6.1875
Q5.51562 13.8125 5.51562 26.8125
Q5.51562 40.2344 12.7656 48.1094
Q20.0156 56 32.3281 56
Q43.3594 56 49.7812 48.8906
Q56.2031 41.7969 56.2031 29.5938
M47.2188 32.2344
Q47.125 39.5938 43.0938 43.9844
Q39.0625 48.3906 32.4219 48.3906
Q24.9062 48.3906 20.3906 44.1406
Q15.875 39.8906 15.1875 32.1719
z
" id="BitstreamVeraSans-Roman-65"/>
     <path d="
M4.20312 54.6875
L13.1875 54.6875
L24.4219 12.0156
L35.5938 54.6875
L46.1875 54.6875
L57.4219 12.0156
L68.6094 54.6875
L77.5938 54.6875
L63.2812 0
L52.6875 0
L40.9219 44.8281
L29.1094 0
L18.5 0
z
" id="BitstreamVeraSans-Roman-77"/>
     <path d="
M59.5156 10.4062
L59.5156 29.9844
L43.4062 29.9844
L43.4062 38.0938
L69.2812 38.0938
L69.2812 6.78125
Q63.5781 2.73438 56.6875 0.65625
Q49.8125 -1.42188 42 -1.42188
Q24.9062 -1.42188 15.25 8.5625
Q5.60938 18.5625 5.60938 36.375
Q5.60938 54.25 15.25 64.2344
Q24.9062 74.2188 42 74.2188
Q49.125 74.2188 55.5469 72.4531
Q61.9688 70.7031 67.3906 67.2812
L67.3906 56.7812
Q61.9219 61.4219 55.7656 63.7656
Q49.6094 66.1094 42.8281 66.1094
Q29.4375 66.1094 22.7188 58.6406
Q16.0156 51.1719 16.0156 36.375
Q16.0156 21.625 22.7188 14.1562
Q29.4375 6.6875 42.8281 6.6875
Q48.0469 6.6875 52.1406 7.59375
Q56.25 8.5 59.5156 10.4062" id="BitstreamVeraSans-Roman-47"/>
     <path id="BitstreamVeraSans-Roman-20"/>
     <path d="
M2.98438 54.6875
L12.5 54.6875
L29.5938 8.79688
L46.6875 54.6875
L56.2031 54.6875
L35.6875 0
L23.4844 0
z
" id="BitstreamVeraSans-Roman-76"/>
     <path d="
M9.07812 75.9844
L18.1094 75.9844
L18.1094 31.1094
L44.9219 54.6875
L56.3906 54.6875
L27.3906 29.1094
L57.625 0
L45.9062 0
L18.1094 26.7031
L18.1094 0
L9.07812 0
z
" id="BitstreamVeraSans-Roman-6b"/>
     <path d="
M54.8906 33.0156
L54.8906 0
L45.9062 0
L45.9062 32.7188
Q45.9062 40.4844 42.875 44.3281
Q39.8438 48.1875 33.7969 48.1875
Q26.5156 48.1875 22.3125 43.5469
Q18.1094 38.9219 18.1094 30.9062
L18.1094 0
L9.07812 0
L9.07812 54.6875
L18.1094 54.6875
L18.1094 46.1875
Q21.3438 51.125 25.7031 53.5625
Q30.0781 56 35.7969 56
Q45.2188 56 50.0469 50.1719
Q54.8906 44.3438 54.8906 33.0156" id="BitstreamVeraSans-Roman-6e"/>
     <path d="
M48.7812 52.5938
L48.7812 44.1875
Q44.9688 46.2969 41.1406 47.3438
Q37.3125 48.3906 33.4062 48.3906
Q24.6562 48.3906 19.8125 42.8438
Q14.9844 37.3125 14.9844 27.2969
Q14.9844 17.2812 19.8125 11.7344
Q24.6562 6.20312 33.4062 6.20312
Q37.3125 6.20312 41.1406 7.25
Q44.9688 8.29688 48.7812 10.4062
L48.7812 2.09375
Q45.0156 0.34375 40.9844 -0.53125
Q36.9688 -1.42188 32.4219 -1.42188
Q20.0625 -1.42188 12.7812 6.34375
Q5.51562 14.1094 5.51562 27.2969
Q5.51562 40.6719 12.8594 48.3281
Q20.2188 56 33.0156 56
Q37.1562 56 41.1094 55.1406
Q45.0625 54.2969 48.7812 52.5938" id="BitstreamVeraSans-Roman-63"/>
     <path d="
M18.3125 70.2188
L18.3125 54.6875
L36.8125 54.6875
L36.8125 47.7031
L18.3125 47.7031
L18.3125 18.0156
Q18.3125 11.3281 20.1406 9.42188
Q21.9688 7.51562 27.5938 7.51562
L36.8125 7.51562
L36.8125 0
L27.5938 0
Q17.1875 0 13.2344 3.875
Q9.28125 7.76562 9.28125 18.0156
L9.28125 47.7031
L2.6875 47.7031
L2.6875 54.6875
L9.28125 54.6875
L9.28125 70.2188
z
" id="BitstreamVeraSans-Roman-74"/>
     <path d="
M18.1094 8.20312
L18.1094 -20.7969
L9.07812 -20.7969
L9.07812 54.6875
L18.1094 54.6875
L18.1094 46.3906
Q20.9531 51.2656 25.2656 53.625
Q29.5938 56 35.5938 56
Q45.5625 56 51.7812 48.0938
Q58.0156 40.1875 58.0156 27.2969
Q58.0156 14.4062 51.7812 6.48438
Q45.5625 -1.42188 35.5938 -1.42188
Q29.5938 -1.42188 25.2656 0.953125
Q20.9531 3.32812 18.1094 8.20312
M48.6875 27.2969
Q48.6875 37.2031 44.6094 42.8438
Q40.5312 48.4844 33.4062 48.4844
Q26.2656 48.4844 22.1875 42.8438
Q18.1094 37.2031 18.1094 27.2969
Q18.1094 17.3906 22.1875 11.75
Q26.2656 6.10938 33.4062 6.10938
Q40.5312 6.10938 44.6094 11.75
Q48.6875 17.3906 48.6875 27.2969" id="BitstreamVeraSans-Roman-70"/>
     <path d="
M8.5 21.5781
L8.5 54.6875
L17.4844 54.6875
L17.4844 21.9219
Q17.4844 14.1562 20.5 10.2656
Q23.5312 6.39062 29.5938 6.39062
Q36.8594 6.39062 41.0781 11.0312
Q45.3125 15.6719 45.3125 23.6875
L45.3125 54.6875
L54.2969 54.6875
L54.2969 0
L45.3125 0
L45.3125 8.40625
Q42.0469 3.42188 37.7188 1
Q33.4062 -1.42188 27.6875 -1.42188
Q18.2656 -1.42188 13.375 4.4375
Q8.5 10.2969 8.5 21.5781" id="BitstreamVeraSans-Roman-75"/>
    </defs>
    <g transform="translate(369.187875 60.97)scale(0.144 -0.144)">
     <use xlink:href="#BitstreamVeraSans-Roman-47"/>
     <use x="77.490234375" xlink:href="#BitstreamVeraSans-Roman-61"/>
     <use x="138.76953125" xlink:href="#BitstreamVeraSans-Roman-75"/>
     <use x="202.1484375" xlink:href="#BitstreamVeraSans-Roman-73"/>
     <use x="254.248046875" xlink:href="#BitstreamVeraSans-Roman-73"/>
     <use x="306.34765625" xlink:href="#BitstreamVeraSans-Roman-69"/>
     <use x="334.130859375" xlink:href="#BitstreamVeraSans-Roman-61"/>
     <use x="395.41015625" xlink:href="#BitstreamVeraSans-Roman-6e"/>
     <use x="458.7890625" xlink:href="#BitstreamVeraSans-Roman-20"/>
     <use x="490.576171875" xlink:href="#BitstreamVeraSans-Roman-77"/>
     <use x="572.36328125" xlink:href="#BitstreamVeraSans-Roman-61"/>
     <use x="633.642578125" xlink:href="#BitstreamVeraSans-Roman-76"/>
     <use x="692.822265625" xlink:href="#BitstreamVeraSans-Roman-65"/>
     <use x="754.345703125" xlink:href="#BitstreamVeraSans-Roman-20"/>
     <use x="786.1328125" xlink:href="#BitstreamVeraSans-Roman-70"/>
     <use x="849.609375" xlink:href="#BitstreamVeraSans-Roman-61"/>
     <use x="910.888671875" xlink:href="#BitstreamVeraSans-Roman-63"/>
     <use x="965.869140625" xlink:href="#BitstreamVeraSans-Roman-6b"/>
     <use x="1020.154296875" xlink:href="#BitstreamVeraSans-Roman-65"/>
     <use x="1081.677734375" xlink:href="#BitstreamVeraSans-Roman-74"/>
    </g>
   </g>
   <g id="legend_1">
    <g id="patch_7">
     <path d="
M624.312 143.091
L782.55 143.091
L782.55 73.17
L624.312 73.17
L624.312 143.091
z
" style="fill:#ffffff;stroke:#000000;"/>
    </g>
    <g id="line2d_37">
     <path d="
M634.392 84.8318
L654.552 84.8318" style="fill:none;stroke:#0000ff;stroke-linecap:square;stroke-width:2;"/>
    </g>
    <g id="line2d_38"/>
    <g id="text_14">
     <!-- Real Part -->
     <defs>
      <path d="
M9.42188 75.9844
L18.4062 75.9844
L18.4062 0
L9.42188 0
z
" id="BitstreamVeraSans-Roman-6c"/>
      <path d="
M19.6719 64.7969
L19.6719 37.4062
L32.0781 37.4062
Q38.9688 37.4062 42.7188 40.9688
Q46.4844 44.5312 46.4844 51.125
Q46.4844 57.6719 42.7188 61.2344
Q38.9688 64.7969 32.0781 64.7969
z

M9.8125 72.9062
L32.0781 72.9062
Q44.3438 72.9062 50.6094 67.3594
Q56.8906 61.8125 56.8906 51.125
Q56.8906 40.3281 50.6094 34.8125
Q44.3438 29.2969 32.0781 29.2969
L19.6719 29.2969
L19.6719 0
L9.8125 0
z
" id="BitstreamVeraSans-Roman-50"/>
      <path d="
M41.1094 46.2969
Q39.5938 47.1719 37.8125 47.5781
Q36.0312 48 33.8906 48
Q26.2656 48 22.1875 43.0469
Q18.1094 38.0938 18.1094 28.8125
L18.1094 0
L9.07812 0
L9.07812 54.6875
L18.1094 54.6875
L18.1094 46.1875
Q20.9531 51.1719 25.4844 53.5781
Q30.0312 56 36.5312 56
Q37.4531 56 38.5781 55.875
Q39.7031 55.7656 41.0625 55.5156
z
" id="BitstreamVeraSans-Roman-72"/>
      <path d="
M44.3906 34.1875
Q47.5625 33.1094 50.5625 29.5938
Q53.5625 26.0781 56.5938 19.9219
L66.6094 0
L56 0
L46.6875 18.7031
Q43.0625 26.0312 39.6719 28.4219
Q36.2812 30.8125 30.4219 30.8125
L19.6719 30.8125
L19.6719 0
L9.8125 0
L9.8125 72.9062
L32.0781 72.9062
Q44.5781 72.9062 50.7344 67.6719
Q56.8906 62.4531 56.8906 51.9062
Q56.8906 45.0156 53.6875 40.4688
Q50.4844 35.9375 44.3906 34.1875
M19.6719 64.7969
L19.6719 38.9219
L32.0781 38.9219
Q39.2031 38.9219 42.8438 42.2188
Q46.4844 45.5156 46.4844 51.9062
Q46.4844 58.2969 42.8438 61.5469
Q39.2031 64.7969 32.0781 64.7969
z
" id="BitstreamVeraSans-Roman-52"/>
     </defs>
     <g transform="translate(670.392 89.87175)scale(0.144 -0.144)">
      <use xlink:href="#BitstreamVeraSans-Roman-52"/>
      <use x="64.982421875" xlink:href="#BitstreamVeraSans-Roman-65"/>
      <use x="126.505859375" xlink:href="#BitstreamVeraSans-Roman-61"/>
      <use x="187.78515625" xlink:href="#BitstreamVeraSans-Roman-6c"/>
      <use x="215.568359375" xlink:href="#BitstreamVeraSans-Roman-20"/>
      <use x="247.35546875" xlink:href="#BitstreamVeraSans-Roman-50"/>
      <use x="303.158203125" xlink:href="#BitstreamVeraSans-Roman-61"/>
      <use x="364.4375" xlink:href="#BitstreamVeraSans-Roman-72"/>
      <use x="405.55078125" xlink:href="#BitstreamVeraSans-Roman-74"/>
     </g>
    </g>
    <g id="line2d_39">
     <path d="
M634.392 105.968
L654.552 105.968" style="fill:none;stroke:#008000;stroke-linecap:square;stroke-width:2;"/>
    </g>
    <g id="line2d_40"/>
    <g id="text_15">
     <!-- Imaginary part -->
     <defs>
      <path d="
M9.8125 72.9062
L19.6719 72.9062
L19.6719 0
L9.8125 0
z
" id="BitstreamVeraSans-Roman-49"/>
      <path d="
M32.1719 -5.07812
Q28.375 -14.8438 24.75 -17.8125
Q21.1406 -20.7969 15.0938 -20.7969
L7.90625 -20.7969
L7.90625 -13.2812
L13.1875 -13.2812
Q16.8906 -13.2812 18.9375 -11.5156
Q21 -9.76562 23.4844 -3.21875
L25.0938 0.875
L2.98438 54.6875
L12.5 54.6875
L29.5938 11.9219
L46.6875 54.6875
L56.2031 54.6875
z
" id="BitstreamVeraSans-Roman-79"/>
      <path d="
M45.4062 27.9844
Q45.4062 37.75 41.375 43.1094
Q37.3594 48.4844 30.0781 48.4844
Q22.8594 48.4844 18.8281 43.1094
Q14.7969 37.75 14.7969 27.9844
Q14.7969 18.2656 18.8281 12.8906
Q22.8594 7.51562 30.0781 7.51562
Q37.3594 7.51562 41.375 12.8906
Q45.4062 18.2656 45.4062 27.9844
M54.3906 6.78125
Q54.3906 -7.17188 48.1875 -13.9844
Q42 -20.7969 29.2031 -20.7969
Q24.4688 -20.7969 20.2656 -20.0938
Q16.0625 -19.3906 12.1094 -17.9219
L12.1094 -9.1875
Q16.0625 -11.3281 19.9219 -12.3438
Q23.7812 -13.375 27.7812 -13.375
Q36.625 -13.375 41.0156 -8.76562
Q45.4062 -4.15625 45.4062 5.17188
L45.4062 9.625
Q42.625 4.78125 38.2812 2.39062
Q33.9375 0 27.875 0
Q17.8281 0 11.6719 7.65625
Q5.51562 15.3281 5.51562 27.9844
Q5.51562 40.6719 11.6719 48.3281
Q17.8281 56 27.875 56
Q33.9375 56 38.2812 53.6094
Q42.625 51.2188 45.4062 46.3906
L45.4062 54.6875
L54.3906 54.6875
z
" id="BitstreamVeraSans-Roman-67"/>
      <path d="
M52 44.1875
Q55.375 50.25 60.0625 53.125
Q64.75 56 71.0938 56
Q79.6406 56 84.2812 50.0156
Q88.9219 44.0469 88.9219 33.0156
L88.9219 0
L79.8906 0
L79.8906 32.7188
Q79.8906 40.5781 77.0938 44.375
Q74.3125 48.1875 68.6094 48.1875
Q61.625 48.1875 57.5625 43.5469
Q53.5156 38.9219 53.5156 30.9062
L53.5156 0
L44.4844 0
L44.4844 32.7188
Q44.4844 40.625 41.7031 44.4062
Q38.9219 48.1875 33.1094 48.1875
Q26.2188 48.1875 22.1562 43.5312
Q18.1094 38.875 18.1094 30.9062
L18.1094 0
L9.07812 0
L9.07812 54.6875
L18.1094 54.6875
L18.1094 46.1875
Q21.1875 51.2188 25.4844 53.6094
Q29.7812 56 35.6875 56
Q41.6562 56 45.8281 52.9688
Q50 49.9531 52 44.1875" id="BitstreamVeraSans-Roman-6d"/>
     </defs>
     <g transform="translate(670.392 111.00825)scale(0.144 -0.144)">
      <use xlink:href="#BitstreamVeraSans-Roman-49"/>
      <use x="29.4921875" xlink:href="#BitstreamVeraSans-Roman-6d"/>
      <use x="126.904296875" xlink:href="#BitstreamVeraSans-Roman-61"/>
      <use x="188.18359375" xlink:href="#BitstreamVeraSans-Roman-67"/>
      <use x="251.66015625" xlink:href="#BitstreamVeraSans-Roman-69"/>
      <use x="279.443359375" xlink:href="#BitstreamVeraSans-Roman-6e"/>
      <use x="342.822265625" xlink:href="#BitstreamVeraSans-Roman-61"/>
      <use x="404.1015625" xlink:href="#BitstreamVeraSans-Roman-72"/>
      <use x="445.21484375" xlink:href="#BitstreamVeraSans-Roman-79"/>
      <use x="504.39453125" xlink:href="#BitstreamVeraSans-Roman-20"/>
      <use x="536.181640625" xlink:href="#BitstreamVeraSans-Roman-70"/>
      <use x="599.658203125" xlink:href="#BitstreamVeraSans-Roman-61"/>
      <use x="660.9375" xlink:href="#BitstreamVeraSans-Roman-72"/>
      <use x="702.05078125" xlink:href="#BitstreamVeraSans-Roman-74"/>
     </g>
    </g>
    <g id="line2d_41">
     <path d="
M634.392 129.267
L654.552 129.267" style="fill:none;stroke:#ff0000;stroke-linecap:square;stroke-width:2;"/>
    </g>
    <g id="line2d_42"/>
    <g id="text_16">
     <!-- $\psi^2$ -->
     <defs>
      <path d="
M23.7812 -19.4844
L28.5156 -0.875
Q24.1719 -0.875 20.0938 0.75
Q16.0156 2.39062 13.5 5.5625
Q10.9844 8.73438 10.9844 13.2812
Q10.9844 15.875 11.9062 19.1875
Q12.8438 22.5156 13.8906 25.2969
Q14.9375 28.0781 16.7031 32.625
Q18.0156 36.2812 18.0156 38.625
Q18.0156 41.6094 15.8281 41.6094
Q11.8594 41.6094 9.29688 37.5312
Q6.73438 33.4531 5.51562 28.4219
Q5.32812 27.7812 4.6875 27.7812
L3.51562 27.7812
Q2.6875 27.7812 2.6875 28.7188
L2.6875 29
Q4.29688 34.9688 7.60938 39.5781
Q10.9375 44.1875 16.0156 44.1875
Q19.5781 44.1875 22.0469 41.8438
Q24.5156 39.5 24.5156 35.8906
Q24.5156 34.0312 23.6875 31.9844
Q21.9219 27.4375 20.8906 24.75
Q19.875 22.0781 18.9375 18.6719
Q18.0156 15.2812 18.0156 12.5938
Q18.0156 7.71875 21.0625 5.03125
Q24.125 2.34375 29.1094 1.70312
L45.9062 68.7969
Q46.0938 69.3906 46.6875 69.3906
L47.9062 69.3906
Q48.6875 69.3906 48.6875 68.4062
L31.9844 1.51562
L33.1094 1.51562
Q37.3125 1.51562 41.9688 4
Q46.625 6.5 50.4531 10.5469
Q54.2969 14.5938 56.5469 19.25
Q58.7969 23.9219 58.7969 27.9844
Q58.7969 31 57.8125 32.6875
Q56.8438 34.375 55.2812 36.2031
Q53.7188 38.0312 53.7188 39.1094
Q53.7188 41.0625 55.3281 42.6719
Q56.9375 44.2812 58.8906 44.2812
Q61.2812 44.2812 62.3281 42.0781
Q63.375 39.8906 63.375 37.1094
Q63.375 34.1875 62.7812 31.25
Q62.2031 28.3281 61.1875 24.3125
Q58.8906 15.1875 51.6094 7.90625
Q49.125 5.42188 46.1094 3.34375
Q43.1094 1.26562 39.7656 0.0625
Q36.4219 -1.125 33.0156 -1.125
L31.3906 -1.125
L26.7031 -19.9219
Q26.5156 -20.5156 25.875 -20.5156
L24.7031 -20.5156
Q24.3125 -20.5156 24.0469 -20.1875
Q23.7812 -19.875 23.7812 -19.4844" id="Cmmi10-c3"/>
      <path d="
M4.98438 0
L4.98438 2.6875
Q4.98438 2.9375 5.17188 3.21875
L20.7031 20.4062
Q24.2188 24.2188 26.4062 26.7969
Q28.6094 29.3906 30.75 32.7656
Q32.9062 36.1406 34.1562 39.625
Q35.4062 43.1094 35.4062 47.0156
Q35.4062 51.125 33.8906 54.8594
Q32.375 58.5938 29.375 60.8438
Q26.375 63.0938 22.125 63.0938
Q17.7812 63.0938 14.3125 60.4688
Q10.8438 57.8594 9.42188 53.7188
Q9.8125 53.8125 10.5 53.8125
Q12.75 53.8125 14.3281 52.2969
Q15.9219 50.7812 15.9219 48.3906
Q15.9219 46.0938 14.3281 44.5
Q12.75 42.9219 10.5 42.9219
Q8.15625 42.9219 6.5625 44.5469
Q4.98438 46.1875 4.98438 48.3906
Q4.98438 52.1562 6.39062 55.4375
Q7.8125 58.7344 10.4688 61.2969
Q13.1406 63.875 16.4844 65.2344
Q19.8281 66.6094 23.5781 66.6094
Q29.2969 66.6094 34.2188 64.1875
Q39.1562 61.7656 42.0312 57.3438
Q44.9219 52.9375 44.9219 47.0156
Q44.9219 42.6719 43.0156 38.7656
Q41.1094 34.8594 38.125 31.6562
Q35.1562 28.4688 30.5156 24.4062
Q25.875 20.3594 24.4219 19
L13.0938 8.10938
L22.7031 8.10938
Q29.7812 8.10938 34.5469 8.21875
Q39.3125 8.34375 39.5938 8.59375
Q40.7656 9.85938 42 17.8281
L44.9219 17.8281
L42.0938 0
z
" id="Cmr10-32"/>
     </defs>
     <g transform="translate(670.392 134.307)scale(0.144 -0.144)">
      <use transform="translate(0.0 0.4921875)" xlink:href="#Cmmi10-c3"/>
      <use transform="translate(65.087890625 44.3734375)scale(0.7)" xlink:href="#Cmr10-32"/>
     </g>
    </g>
   </g>
  </g>
 </g>
 <defs>
  <clipPath id="p85c8ce33d4">
   <rect height="527.76" width="680.0625" x="109.6875" y="65.97"/>
  </clipPath>
 </defs>
</svg>
